<?xml version="1.0" encoding="UTF-8"?><svg id="Layer_1" xmlns="http://www.w3.org/2000/svg" viewBox="0 0 71.96 82.25"><defs><style>.cls-1{fill:#fff;}</style></defs><path class="cls-1" d="M52.6,19.99h-.87c-2.26,0-2.38,.2-1.34,2.17,.53,1,1.31,1.8,2.12,2.58,.42,.4,.68,.35,1-.18,.86-1.4,1.41-3.01,3.01-3.9,1.68-.94,4.63-.79,6.34,.48,1.42,1.06,2.08,3.22,1.57,5.19-.42,1.65-2.3,2.91-4.46,3.01-1.2,.06-2.39-.11-3.58-.23-1.03-.11-1.29,.33-.87,1.29,.62,1.43,1.61,2.56,2.82,3.52,.82,.65,1.23,.54,1.54-.46,.84-2.66,4.25-4.73,7.01-3.36,1.32,.66,2.33,2.19,2.32,3.88,0,1.5-1.04,3.02-2.37,3.59-1.26,.54-2.58,.53-3.89,.42-1-.08-1.28,.35-1.25,1.25,.03,.99,.38,1.91,.83,2.73,.45,.83,1.06,.18,1.41-.22,.94-1.05,2.01-1.7,3.47-1.88,2.53-.3,4.34,.7,4.54,3.01,.16,1.84-.86,3.81-3.53,4.23-1.14,.18-2.31,.25-3.42-.25-.71-.32-1.08-.02-1.37,.67-.62,1.45-.89,3.02-1.07,4.52-.53,4.47-2.97,7.65-6.17,10.54-2.85,2.57-5.82,4.96-8.96,7.13-4.16,2.87-8.54,5.37-13.14,7.5-2.79,1.29-5.64,2.4-8.54,3.3-4.32,1.34-8.78,1.92-13.34,1.67-2.35-.13-4.61-.49-6.72-1.49-2.72-1.28-4.31-3.51-5.14-6.38-.64-2.21-.78-4.35-.08-6.59,.74-2.38,2.06-4.3,4.05-5.75,3.05-2.23,6.54-3.59,9.99-5.05,3.83-1.62,7.88-2.86,11.14-5.63,2.65-2.26,4.42-5.06,5.33-8.45,1.43-5.34,1.12-10.7,.23-16.03-.79-4.72,1.2-7.19,5.28-8.72,.71-.27,1.42-.53,2.13-.81,.35-.14,.6-.4,.65-.8,.05-.44-.25-.6-.58-.79-3.82-2.22-5.52-5.9-4.84-10.1,.53-3.26,2.04-5.02,5.09-5.52,2.97-.48,6.04,1.19,7.04,4,.68,1.91,.8,3.93,.4,6-.35,1.8-.92,3.45-1.97,4.94-.47,.67-.4,1.23,.41,1.52,2.23,.8,2.25,.88,2.33-1.48,.09-2.69,1.1-4.88,3.51-6.25,3.11-1.77,6.04-.38,7.34,2.3,1.09,2.25,.99,4.57-.56,6.68-1.27,1.72-2.98,2.45-4.83,2.21h-.01Z"/><path class="cls-1" d="M14.29,80.2c-2.6,.21-5.27-.23-7.85-1.39-3.35-1.51-5.08-6.63-4.23-9.92,.95-3.7,3.6-5.6,6.64-7.21,3.81-2.01,7.88-3.42,11.83-5.11,4.24-1.83,8.01-4.29,10.33-8.5,1.56-2.84,2.35-5.88,2.69-9.09,.47-4.45,.02-8.83-.7-13.21-.35-2.12,.71-4.03,2.61-5.06,1.92-1.04,4.12-1.47,5.92-2.78,.45-.33,1.09-.21,1.62,.04,1.11,.53,2.26,.97,3.45,1.29,.81,.22,.91,.97,1.09,1.59,.65,2.26,1.82,4.22,3.72,5.56,1.17,.82,1.68,1.74,1.84,3.08,.36,2.91,2.15,4.95,4.47,6.47,1.35,.88,2.07,1.9,2.07,3.48,0,1.83,.72,3.43,1.78,4.85,.49,.67,.58,1.35,.36,2.03-.93,2.89-1.29,5.91-2.15,8.8-.55,1.87-2.01,3.26-3.36,4.6-4.08,4.08-8.7,7.47-13.57,10.55-3.74,2.37-7.64,4.45-11.73,6.13-3.31,1.36-6.68,2.54-10.23,3.23-2.14,.41-4.26,.64-6.62,.57h.02Z"/><path class="cls-1" d="M44.59,7.98c-.12,2.35-.69,4.54-2.25,6.4-.4,.48-.8,.6-1.35,.32-3.28-1.66-5.57-4.19-5.31-8.15,.12-1.77,.87-3.42,2.56-4.18,1.69-.77,3.36-.36,4.77,.89,1.05,.93,1.59,2.6,1.57,4.72h0Z"/><path class="cls-1" d="M52.16,18.15c-3.2-.06-3.4-.28-3.1-3.23,.18-1.74,.91-3.2,2.37-4.23,1.55-1.09,3.42-.73,4.44,.86,.92,1.43,1.23,2.92,.32,4.47-.97,1.66-2.42,2.35-4.03,2.13Z"/><path class="cls-1" d="M59.45,22.08c.75-.08,1.53,.08,2.19,.7,.77,.73,1.27,1.56,.96,2.65-.29,1-1.06,1.54-2.03,1.83-1.31,.39-2.62,.22-3.88-.13-1.28-.35-1.52-1.02-.98-2.23,.71-1.59,1.56-2.98,3.75-2.82h-.01Z"/><path class="cls-1" d="M64.06,36.34c-.67-.2-1.33-.38-1.97-.59-.28-.09-.46-.33-.48-.63-.08-1.38,.8-2.23,1.78-2.93,.79-.57,1.7-.86,2.67-.22,.79,.52,1.11,1.22,1.04,2.13-.07,.86-.58,1.38-1.34,1.67-.56,.21-1.13,.38-1.7,.58h0Z"/><path class="cls-1" d="M68.21,41.79c1.11,.02,1.74,.59,1.69,1.52-.06,1.12-1.43,2.15-2.79,2.09-1.15-.04-2.17-.67-2.12-1.31,.08-1.1,1.8-2.33,3.22-2.3Z"/></svg>